<?xml version="1.0" standalone="no"?>
<!DOCTYPE svg PUBLIC "-//W3C//DTD SVG 20010904//EN"
 "http://www.w3.org/TR/2001/REC-SVG-20010904/DTD/svg10.dtd">
<svg version="1.0" xmlns="http://www.w3.org/2000/svg"
 width="1080.000000pt" height="408.000000pt" viewBox="0 0 1080.000000 408.000000"
 preserveAspectRatio="xMidYMid meet">

<g transform="translate(0.000000,408.000000) scale(0.100000,-0.100000)"
fill="#000000" stroke="none">
<path d="M6045 3226 c-76 -33 -132 -153 -106 -227 13 -39 2 -56 -26 -38 -61
37 -173 -47 -207 -154 -11 -35 -19 -93 -20 -145 l-1 -87 -45 -5 -45 -5 -6 -80
c-3 -44 -10 -99 -14 -122 l-7 -41 43 -10 44 -9 -27 -11 c-25 -10 -28 -16 -27
-59 0 -27 4 -79 8 -118 6 -56 5 -72 -6 -78 -18 -11 -35 -56 -26 -70 4 -6 7
-27 6 -47 0 -19 3 -40 8 -46 4 -5 2 -50 -6 -100 -8 -49 -15 -114 -15 -144 -1
-40 -7 -66 -25 -95 -52 -85 -85 -156 -85 -181 0 -15 -12 -47 -26 -72 -23 -38
-26 -53 -21 -98 4 -37 -2 -79 -19 -146 -13 -51 -24 -114 -24 -139 0 -40 3 -48
23 -53 29 -8 106 -7 135 1 21 5 23 10 17 37 -24 114 -7 221 42 253 11 8 24 26
28 41 3 15 22 62 41 105 25 54 34 86 30 105 -4 17 0 36 11 53 10 15 30 44 44
65 15 22 34 45 43 53 9 7 16 24 16 38 0 35 57 177 80 198 10 9 20 27 22 39 3
19 5 18 21 -11 12 -24 25 -33 42 -33 20 0 36 -18 86 -92 70 -104 73 -108 110
-108 43 0 53 -21 38 -77 -7 -26 -13 -75 -13 -108 0 -67 23 -203 36 -211 12 -7
10 -142 -2 -165 -6 -10 -12 -43 -13 -71 l-2 -53 80 -9 c44 -4 123 -9 175 -10
l95 -1 3 28 c3 25 -2 30 -51 52 -39 17 -66 38 -92 72 -36 47 -36 48 -31 123 4
41 8 111 10 155 2 44 8 127 14 185 5 61 6 112 1 122 -5 9 -9 24 -9 34 0 9 -6
22 -13 28 -8 6 -31 54 -52 106 -40 99 -90 186 -132 231 -27 29 -45 90 -33 109
5 8 18 10 33 6 39 -9 59 31 69 144 10 118 4 158 -26 171 -17 8 -22 17 -18 35
6 31 11 30 75 -5 28 -16 76 -36 105 -45 48 -14 57 -14 80 -1 60 33 83 61 95
116 9 40 18 57 35 64 14 6 20 15 16 25 -4 8 -8 35 -11 60 -4 41 -1 48 36 88
l40 42 106 0 c63 0 105 4 105 10 0 6 55 10 144 10 133 0 172 7 153 27 -4 3
-58 5 -122 4 -109 -1 -115 0 -115 19 0 11 -6 19 -12 17 -9 -1 -14 13 -16 41
-4 56 -22 54 -22 -3 0 -25 -4 -45 -10 -45 -5 0 -10 5 -10 10 0 6 -90 10 -250
10 -160 0 -250 4 -250 10 0 6 -7 10 -15 10 -8 0 -15 9 -15 20 0 11 -4 20 -10
20 -5 0 -10 -11 -10 -24 0 -31 -4 -33 -66 -41 l-50 -7 -2 31 c-2 25 3 33 28
46 26 13 30 21 30 55 0 22 -5 60 -12 84 -10 40 -17 47 -72 75 -66 33 -112 38
-161 17z m469 -445 c9 -13 -48 -111 -64 -111 -7 0 -30 45 -30 60 0 6 17 11 38
11 20 1 30 3 21 6 -23 6 -12 43 12 43 10 0 20 -4 23 -9z"/>
<path d="M10508 1959 c-54 -31 -34 -108 28 -109 50 0 73 76 32 104 -26 18 -36
19 -60 5z m54 -16 c22 -20 23 -41 1 -65 -31 -35 -73 -16 -73 34 0 42 40 60 72
31z"/>
<path d="M10510 1908 c0 -24 3 -29 9 -19 7 11 13 12 23 3 11 -9 14 -6 13 13 0
13 -4 27 -8 32 -5 4 -7 4 -5 -2 2 -5 -1 -10 -7 -10 -5 0 -9 3 -7 8 1 4 -2 7
-8 7 -5 0 -10 -15 -10 -32z"/>
<path d="M301 1942 c-71 -35 -76 -52 -79 -260 -4 -216 2 -249 55 -289 l36 -28
214 -3 c201 -3 216 -2 258 18 31 15 49 33 64 62 11 23 18 45 15 50 -3 4 -113
8 -245 8 l-239 0 0 165 0 165 245 2 244 3 -19 42 c-13 30 -30 48 -59 62 -37
19 -58 21 -248 21 -178 0 -213 -3 -242 -18z"/>
<path d="M1025 1941 c-73 -34 -80 -57 -80 -283 0 -183 1 -198 21 -224 50 -68
54 -69 295 -72 201 -3 222 -1 264 17 37 16 50 29 66 66 19 42 20 63 17 233 -3
175 -4 189 -25 218 -42 59 -67 64 -305 64 -185 0 -218 -3 -253 -19z m435 -281
l0 -170 -185 0 -185 0 0 170 0 170 185 0 185 0 0 -170z"/>
<path d="M1720 1713 c0 -228 2 -251 20 -280 40 -66 48 -68 310 -68 262 0 270
2 310 68 18 29 20 52 20 280 l0 247 -70 0 -70 0 0 -235 0 -235 -189 0 -190 0
-3 194 c-3 192 -3 195 -28 222 -23 25 -77 54 -100 54 -6 0 -10 -84 -10 -247z"/>
<path d="M2502 1664 l3 -299 73 -3 72 -3 0 206 0 207 215 -207 214 -206 68 3
68 3 3 299 2 299 -30 -6 c-42 -9 -78 -35 -98 -71 -13 -23 -18 -66 -22 -173
l-5 -143 -175 165 c-96 91 -196 177 -222 190 -27 14 -74 28 -108 32 l-60 6 2
-299z"/>
<path d="M3333 1945 c-29 -12 -73 -75 -73 -105 0 -6 47 -10 130 -10 l130 0 2
-232 3 -233 73 -3 72 -3 0 236 0 235 80 0 c106 0 145 16 170 72 10 23 16 46
14 50 -3 4 -132 8 -287 8 -218 -1 -289 -4 -314 -15z"/>
<path d="M3990 1659 l0 -300 249 3 249 3 28 25 c22 21 54 76 54 95 0 3 -99 5
-221 5 l-220 0 3 53 3 52 146 5 c129 4 150 8 169 25 26 23 53 81 45 95 -4 6
-82 10 -186 10 l-179 0 0 49 0 50 181 3 181 3 34 37 c20 22 34 48 34 63 l0 25
-285 0 -285 0 0 -301z"/>
<path d="M4650 1661 l0 -301 75 0 75 0 0 235 0 235 149 0 c171 0 181 -4 181
-73 0 -69 -5 -71 -139 -77 l-119 -5 123 -155 c68 -85 134 -161 147 -167 25
-14 188 -18 188 -5 0 4 -41 54 -90 111 l-90 104 40 18 c63 28 80 66 80 179 0
108 -15 146 -72 177 -29 16 -65 18 -290 21 l-258 3 0 -300z"/>
<path d="M6717 1939 c-50 -26 -76 -83 -77 -164 0 -73 22 -121 69 -152 33 -22
42 -23 242 -23 l209 0 0 -55 0 -55 -260 -2 -260 -3 21 -42 c15 -30 33 -48 63
-62 39 -19 61 -21 251 -21 190 0 212 2 251 21 79 38 110 166 64 267 -33 72
-66 82 -302 82 l-198 0 0 50 0 50 250 0 c278 0 271 -2 230 65 -35 57 -73 65
-308 65 -188 -1 -211 -3 -245 -21z"/>
<path d="M7403 1940 c-32 -19 -63 -66 -63 -95 0 -13 18 -15 120 -15 l120 0 0
-235 0 -236 73 3 72 3 3 233 2 232 71 0 c95 0 135 18 159 72 10 23 16 46 14
50 -3 4 -125 8 -272 8 -247 0 -269 -2 -299 -20z"/>
<path d="M8030 1661 l0 -301 75 0 75 0 0 235 0 235 149 0 c172 0 181 -4 181
-74 0 -70 -9 -75 -142 -78 l-116 -3 118 -145 c66 -80 130 -151 142 -157 25
-14 188 -18 188 -5 -1 4 -39 49 -86 101 l-85 94 41 18 c62 28 80 67 80 174 0
106 -17 149 -70 180 -32 18 -55 20 -292 23 l-258 3 0 -300z"/>
<path d="M8820 1660 l0 -300 70 0 70 0 0 300 0 300 -70 0 -70 0 0 -300z"/>
<path d="M9125 1947 c-3 -7 -4 -140 -3 -297 l3 -285 73 -3 72 -3 0 121 c0 85
3 120 12 120 6 0 83 -54 170 -120 l159 -120 114 0 c63 0 115 1 115 3 0 2 -85
70 -190 152 -104 81 -190 151 -190 154 0 3 73 69 161 146 l161 140 -101 3
-102 3 -140 -111 c-77 -61 -147 -114 -155 -117 -12 -4 -14 14 -14 111 l0 116
-70 0 c-48 0 -72 -4 -75 -13z"/>
<path d="M9860 1660 l0 -300 236 0 c269 0 291 5 324 71 11 21 20 43 20 49 0 6
-75 10 -221 10 l-220 0 3 53 3 52 146 5 c160 5 173 10 206 73 28 55 21 57
-177 57 l-180 0 0 50 0 50 166 0 c196 0 225 9 255 74 10 22 15 44 13 48 -3 4
-133 8 -290 8 l-284 0 0 -300z"/>
<path d="M6786 1150 c-41 -13 -46 -25 -46 -107 0 -63 3 -74 22 -87 12 -9 43
-16 68 -16 63 0 90 21 90 71 l0 39 -45 0 c-25 0 -45 -4 -45 -10 0 -5 11 -10
25 -10 18 0 25 -5 25 -20 0 -27 -41 -43 -75 -30 -25 9 -26 13 -23 72 l3 63 43
3 c31 2 44 -1 48 -12 9 -23 44 -20 44 3 0 10 -6 23 -12 29 -19 15 -89 22 -122
12z"/>
<path d="M7278 1153 c-14 -2 -32 -10 -38 -18 -17 -21 -24 -108 -11 -148 10
-30 18 -37 47 -43 41 -8 103 1 118 16 6 6 12 41 14 78 3 55 1 71 -15 89 -19
22 -68 33 -115 26z m90 -97 c2 -32 -1 -63 -6 -68 -15 -15 -83 -12 -93 4 -10
15 -12 89 -3 113 5 12 17 15 53 13 l46 -3 3 -59z"/>
<path d="M8431 1150 c-44 -11 -51 -23 -51 -101 0 -90 12 -104 88 -104 83 0 92
10 92 105 0 50 -4 81 -12 87 -19 15 -79 22 -117 13z m87 -101 c3 -62 1 -67
-20 -71 -13 -2 -34 -1 -48 2 -22 5 -25 12 -28 59 -4 76 0 83 50 79 l43 -3 3
-66z"/>
<path d="M9675 1153 c-34 -9 -45 -24 -45 -64 0 -45 4 -48 71 -56 29 -3 53 -12
56 -20 15 -39 -67 -61 -87 -23 -15 28 -40 25 -40 -5 0 -31 26 -45 82 -45 63 0
80 16 76 70 l-3 45 -57 9 c-52 8 -58 12 -58 33 0 20 5 23 40 23 29 0 40 -4 40
-15 0 -8 9 -15 20 -15 23 0 28 31 8 48 -16 13 -77 22 -103 15z"/>
<path d="M7010 1045 l0 -105 70 0 c63 0 70 2 70 20 0 17 -7 20 -50 20 l-50 0
0 85 c0 78 -2 85 -20 85 -19 0 -20 -7 -20 -105z"/>
<path d="M7500 1045 l0 -105 63 0 c73 0 107 18 107 57 0 15 -7 35 -17 45 -10
12 -12 18 -4 18 8 0 11 14 9 43 l-3 42 -77 3 -78 3 0 -106z m123 62 c8 -22 -7
-37 -46 -44 -36 -5 -37 -5 -37 26 0 29 2 31 39 31 23 0 41 -5 44 -13z m-5 -76
c8 -5 12 -17 10 -27 -2 -14 -13 -20 -46 -22 -41 -3 -42 -2 -42 27 0 28 3 31
33 31 17 0 38 -4 45 -9z"/>
<path d="M7781 1057 c-17 -50 -31 -98 -31 -105 0 -19 28 -14 40 8 8 16 21 20
56 20 37 0 47 -4 51 -20 5 -18 43 -30 43 -13 0 4 -14 51 -32 105 -32 97 -33
98 -64 98 -32 0 -33 -1 -63 -93z m93 -24 c7 -21 4 -23 -29 -23 -34 0 -37 2
-31 25 3 13 11 37 17 52 l11 28 13 -30 c7 -16 16 -40 19 -52z"/>
<path d="M8027 1048 l1 -103 66 -3 c61 -3 66 -1 66 18 0 17 -6 20 -50 20 l-50
0 0 85 c0 74 -2 85 -17 85 -16 0 -18 -11 -16 -102z"/>
<path d="M8657 1048 c1 -85 4 -104 17 -106 13 -3 16 6 16 42 l0 46 50 0 c37 0
50 4 50 14 0 11 -14 16 -47 18 -44 3 -48 5 -51 31 -3 26 -2 27 47 27 39 0 51
4 51 15 0 12 -14 15 -67 15 l-68 0 2 -102z"/>
<path d="M8880 1045 c0 -98 1 -105 20 -105 17 0 20 7 20 45 l0 45 45 0 c33 0
45 4 45 15 0 11 -12 15 -45 15 -43 0 -45 1 -45 30 0 29 1 30 50 30 38 0 50 4
50 15 0 12 -14 15 -70 15 l-70 0 0 -105z"/>
<path d="M9102 1048 l3 -103 70 0 c56 0 70 3 70 15 0 11 -14 16 -53 18 -51 3
-53 4 -50 30 3 25 7 27 51 30 33 2 47 7 47 18 0 10 -13 14 -50 14 -47 0 -50 2
-50 25 0 24 3 25 55 25 42 0 55 3 55 15 0 12 -15 15 -75 15 l-76 0 3 -102z"/>
<path d="M9340 1045 c0 -98 1 -105 20 -105 18 0 20 7 20 87 l0 87 43 -84 c40
-77 47 -85 75 -88 l32 -3 0 105 c0 94 -2 106 -17 106 -15 0 -18 -8 -15 -53 2
-30 2 -67 0 -83 -3 -26 -8 -21 -46 54 -41 79 -44 82 -77 82 l-35 0 0 -105z"/>
<path d="M9890 1044 c0 -95 2 -105 18 -102 15 3 17 17 20 106 3 97 2 102 -18
102 -19 0 -20 -6 -20 -106z"/>
<path d="M10011 1143 c0 -5 15 -51 32 -103 31 -91 33 -95 61 -95 30 0 36 13
92 187 5 16 2 19 -17 16 -19 -2 -27 -15 -46 -77 -12 -40 -24 -75 -26 -78 -3
-2 -17 32 -32 76 -21 64 -31 81 -46 81 -10 0 -19 -3 -18 -7z"/>
<path d="M10280 1045 l0 -105 70 0 c63 0 70 2 70 20 0 17 -7 20 -50 20 -49 0
-50 1 -50 30 0 29 1 30 51 30 66 0 62 24 -4 28 -42 3 -47 6 -47 28 0 22 4 24
50 24 38 0 50 4 50 15 0 12 -14 15 -70 15 l-70 0 0 -105z"/>
</g>
</svg>
