<?xml version="1.0" standalone="no"?>
<!DOCTYPE svg PUBLIC "-//W3C//DTD SVG 20010904//EN"
 "http://www.w3.org/TR/2001/REC-SVG-20010904/DTD/svg10.dtd">
<svg version="1.0" xmlns="http://www.w3.org/2000/svg"
 width="880.000000pt" height="683.000000pt" viewBox="0 0 880.000000 683.000000"
 preserveAspectRatio="xMidYMid meet">

<g transform="translate(0.000000,683.000000) scale(0.100000,-0.100000)"
fill="#000000" stroke="none">
<path d="M8270 6290 c-369 -441 -682 -755 -1000 -1005 -127 -100 -348 -251
-482 -329 -112 -65 -337 -176 -418 -205 -30 -10 -125 -45 -210 -76 -151 -54
-320 -100 -622 -167 l-148 -32 0 -202 c0 -224 -12 -306 -56 -401 -33 -69 -84
-121 -149 -153 -41 -20 -70 -25 -162 -28 -219 -8 -313 46 -403 233 -85 177
-80 205 64 320 53 42 117 97 141 123 70 73 90 143 24 88 -72 -61 -152 -83
-349 -96 -248 -16 -484 -89 -582 -179 -45 -40 -28 -48 169 -77 42 -6 107 -68
123 -118 22 -69 -6 -172 -62 -222 -105 -96 -341 -112 -501 -35 -91 44 -139
116 -171 258 -12 54 -16 124 -16 281 l0 208 -152 33 c-568 123 -893 244 -1293
482 -451 269 -856 618 -1286 1109 -75 85 -160 177 -189 204 -48 45 -54 48 -65
32 -27 -36 -50 -159 -49 -261 4 -392 317 -879 756 -1173 322 -217 947 -494
1163 -517 87 -9 95 -13 95 -41 0 -88 -313 -38 -791 125 -164 56 -229 83 -554
226 -110 48 -351 134 -417 149 -25 6 -28 4 -28 -20 0 -34 75 -194 128 -271
117 -173 384 -337 692 -426 257 -75 439 -108 720 -132 224 -19 377 -41 444
-63 43 -14 51 -21 51 -42 0 -51 -91 -70 -334 -70 -366 0 -658 48 -1216 199
-82 23 -151 41 -152 41 -24 1 61 -125 128 -191 120 -119 328 -257 463 -310
120 -47 182 -52 475 -45 731 18 766 18 794 7 33 -13 35 -35 5 -55 -54 -35
-373 -85 -703 -111 -219 -17 -363 -38 -402 -58 l-25 -14 27 -17 c79 -52 371
-134 505 -143 123 -7 184 3 533 88 159 38 318 73 353 76 64 6 64 6 64 -20 0
-22 -9 -31 -47 -51 -90 -44 -278 -108 -542 -182 -146 -41 -266 -76 -268 -78
-9 -9 320 -97 433 -117 99 -16 176 1 425 99 237 93 297 112 356 112 36 0 43
-3 43 -19 0 -11 -7 -27 -16 -35 -29 -29 -151 -95 -280 -151 -71 -31 -147 -65
-169 -76 l-40 -19 130 4 c128 5 291 31 390 62 28 9 111 40 185 70 209 83 231
82 229 -5 -1 -84 -56 -187 -180 -337 -55 -66 -89 -117 -89 -131 0 -27 48 -151
62 -159 14 -9 45 23 109 116 71 104 155 190 184 190 34 0 71 35 99 94 31 66
50 83 71 66 8 -7 15 -23 15 -37 0 -37 18 -63 44 -63 37 0 78 55 106 145 28 90
75 99 149 30 57 -53 100 -136 108 -208 8 -80 23 -97 84 -97 72 0 113 -23 201
-112 79 -79 94 -88 116 -66 32 32 5 98 -104 260 -40 59 -82 132 -93 163 -25
66 -28 147 -6 165 22 18 88 7 181 -31 107 -43 227 -76 362 -99 114 -20 304
-27 286 -12 -5 5 -36 19 -69 32 -100 39 -337 156 -382 189 -26 19 -43 39 -43
51 0 47 134 18 385 -83 280 -113 342 -126 479 -102 88 16 309 83 355 109 24
13 23 14 -30 29 -30 8 -168 47 -308 87 -227 64 -389 120 -443 153 -10 7 -18
20 -18 29 0 39 150 18 446 -62 277 -75 509 -88 704 -40 145 35 300 125 260
150 -27 17 -104 29 -286 45 -295 26 -449 45 -593 71 -154 29 -204 48 -209 81
-3 18 3 23 34 29 43 8 411 -1 684 -16 221 -12 372 -2 489 35 162 51 408 197
539 320 84 78 165 195 135 195 -4 0 -136 -34 -293 -75 -442 -115 -675 -153
-1010 -161 -286 -8 -410 16 -410 80 0 53 52 64 350 76 277 10 457 35 682 91
381 96 649 228 829 410 111 111 179 261 154 340 -6 19 -12 21 -49 16 -22 -3
-66 -16 -96 -28 -30 -11 -64 -25 -75 -29 -11 -4 -85 -37 -165 -73 -80 -36
-197 -86 -260 -112 -63 -26 -130 -54 -148 -62 -64 -28 -449 -152 -567 -183
-123 -31 -278 -60 -328 -60 -24 0 -28 4 -25 22 4 28 68 60 253 129 547 201
855 357 1110 559 418 332 614 787 568 1320 l-8 95 -105 -125z"/>
<path d="M4589 2638 c-9 -7 -48 -52 -88 -100 -39 -48 -80 -92 -91 -98 -34 -18
-57 -12 -69 20 -5 17 -14 30 -18 30 -22 0 -53 -34 -69 -75 -22 -58 -15 -183
16 -275 33 -98 97 -230 112 -230 7 0 33 34 58 77 25 42 77 109 117 149 39 40
79 87 89 105 24 47 19 141 -14 287 -24 108 -29 121 -43 110z"/>
<path d="M3972 2223 c-11 -27 -28 -75 -38 -108 -22 -77 -68 -166 -105 -201
-15 -15 -45 -30 -66 -33 -78 -13 -94 -104 -65 -381 11 -114 53 -344 64 -355 2
-3 22 57 43 133 54 196 134 446 189 597 60 163 72 271 38 348 -12 26 -25 47
-30 47 -5 0 -19 -21 -30 -47z"/>
<path d="M4830 2200 c-15 -28 -12 -166 6 -261 19 -107 45 -194 99 -339 63
-167 116 -355 125 -435 l7 -70 16 36 c33 73 61 309 61 521 1 108 -2 199 -6
203 -4 4 -19 -1 -34 -11 -62 -44 -80 -54 -102 -54 -30 0 -38 24 -45 135 -6
100 -33 199 -69 250 -29 43 -45 50 -58 25z"/>
<path d="M4502 1772 c-34 -92 -74 -191 -88 -219 -39 -79 -64 -69 -64 25 0 56
-31 115 -58 110 -9 -2 -27 -22 -40 -46 -45 -82 -39 -328 14 -606 32 -165 100
-464 112 -496 10 -24 11 -23 32 25 79 179 114 297 130 433 12 104 39 156 102
197 102 65 127 194 78 408 -24 106 -123 337 -144 337 -6 0 -39 -76 -74 -168z"/>
</g>
</svg>
